<svg
  xmlns="http://www.w3.org/2000/svg"
  viewBox="0 0 24 24"
  fill="currentColor"
  class="icon"
>
  <path
    fillRule="evenodd"
    d="M12 .5C5.65.5.5 5.65.5 12c0 5.1 3.29 9.4 7.86 10.94.58.1.8-.25.8-.56v-2c-3.2.7-3.9-1.54-3.9-1.54-.53-1.3-1.3-1.65-1.3-1.65-1.07-.73.08-.72.08-.72 1.18.09 1.8 1.22 1.8 1.22 1.05 1.8 2.75 1.28 3.42.98.1-.77.41-1.28.74-1.57-2.55-.3-5.24-1.28-5.24-5.7 0-1.26.45-2.3 1.2-3.12-.12-.3-.52-1.53.11-3.18 0 0 .98-.31 3.2 1.2a11.2 11.2 0 0 1 5.8 0c2.2-1.5 3.2-1.2 3.2-1.2.63 1.65.23 2.88.11 3.18.75.82 1.2 1.86 1.2 3.12 0 4.43-2.7 5.4-5.27 5.69.43.37.8 1.1.8 2.23v3.3c0 .3.21.66.8.55A11.5 11.5 0 0 0 23.5 12C23.5 5.65 18.35.5 12 .5Z"
    clipRule="evenodd"
  />
</svg>
